<svg xmlns="http://www.w3.org/2000/svg" version="1.1" xmlns:xlink="http://www.w3.org/1999/xlink" xmlns:svgjs="http://svgjs.dev/svgjs" width="2000" height="838" viewBox="0 0 2000 838"><g transform="matrix(1,0,0,1,-1.2121212121212466,-1.0710926618967278)"><svg viewBox="0 0 396 166" data-background-color="#000000" preserveAspectRatio="xMidYMid meet" height="838" width="2000" xmlns="http://www.w3.org/2000/svg" xmlns:xlink="http://www.w3.org/1999/xlink"><g id="tight-bounds" transform="matrix(1,0,0,1,0.2400000000000091,0.21217348672416847)"><svg viewBox="0 0 395.52 165.57565302655166" height="165.57565302655166" width="395.52"><g><svg viewBox="0 0 395.52 165.57565302655166" height="165.57565302655166" width="395.52"><g transform="matrix(1,0,0,1,0,102.33239613616665)"><svg viewBox="0 0 395.52 63.24325689038502" height="63.24325689038502" width="395.52"><g id="textblocktransform"><svg viewBox="0 0 395.52 63.24325689038502" height="63.24325689038502" width="395.52" id="textblock"><g><svg viewBox="0 0 395.52 63.24325689038502" height="63.24325689038502" width="395.52"><g transform="matrix(1,0,0,1,0,0)"><svg width="395.52" viewBox="-0.15 -37.75 237.62 38" height="63.24325689038502" data-palette-color="url(#5587a6b8-be46-45ad-af2a-82289f29ac97)"></svg></g></svg></g></svg></g></svg></g><g transform="matrix(1,0,0,1,151.09642009280654,0)"><svg viewBox="0 0 93.3271598143869 87.40218102251211" height="87.40218102251211" width="93.3271598143869"><g><svg xmlns="http://www.w3.org/2000/svg" viewBox="4.5 3.003310501211936 23 25.996689498788065" x="8" y="0" height="87.40218102251211" width="77.3271598143869" class="icon-icon-0" data-fill-palette-color="accent" id="icon-0"></svg></g></svg></g><g></g></svg></g><defs></defs><mask id="e60ba3ce-1637-4ded-8103-0d3c85148f4c"><g id="SvgjsG1952"><svg viewBox="0 0 395.52 165.57565302655166" height="165.57565302655166" width="395.52"><g><svg viewBox="0 0 395.52 165.57565302655166" height="165.57565302655166" width="395.52"><g transform="matrix(1,0,0,1,0,102.33239613616665)"><svg viewBox="0 0 395.52 63.24325689038502" height="63.24325689038502" width="395.52"><g id="SvgjsG1951"><svg viewBox="0 0 395.52 63.24325689038502" height="63.24325689038502" width="395.52" id="SvgjsSvg1950"><g><svg viewBox="0 0 395.52 63.24325689038502" height="63.24325689038502" width="395.52"><g transform="matrix(1,0,0,1,0,0)"><svg width="395.52" viewBox="-0.15 -37.75 237.62 38" height="63.24325689038502" data-palette-color="url(#5587a6b8-be46-45ad-af2a-82289f29ac97)"><path d="M8.5-1.65L-0.15 0.05Q1.35-6.7 2.7-13.15L2.7-13.15Q3.25-15.85 3.85-18.85 4.45-21.85 5-24.75 5.55-27.65 6.05-30.35 6.55-33.05 6.9-35.3L6.9-35.3Q8.35-35.75 9.75-36.08 11.15-36.4 12.63-36.65 14.1-36.9 15.4-36.9L15.4-36.9Q17.65-36.9 19.18-36.15 20.7-35.4 21.65-34.13 22.6-32.85 23-31.15 23.4-29.45 23.4-27.5L23.4-27.5Q23.4-24.7 22.38-22.1 21.35-19.5 19.63-17.48 17.9-15.45 15.68-14.25 13.45-13.05 11.05-13.05L11.05-13.05 10.5-13.05Q10.1-11.35 9.75-9.35 9.4-7.35 9.15-5.65L9.15-5.65Q8.8-3.65 8.5-1.65L8.5-1.65ZM13.8-30.85Q13.25-27.55 12.7-24.6 12.15-21.65 11.5-18.3L11.5-18.3Q12.3-18.5 13.18-19.23 14.05-19.95 14.8-21.13 15.55-22.3 16-23.85 16.45-25.4 16.45-27.1L16.45-27.1Q16.45-28.95 15.63-29.9 14.8-30.85 13.8-30.85L13.8-30.85ZM27.05-1.5L19.35 0.1Q20.75-6.9 22.05-13.55L22.05-13.55Q22.55-16.4 23.1-19.48 23.65-22.55 24.12-25.55 24.6-28.55 25.02-31.38 25.45-34.2 25.7-36.5L25.7-36.5Q26.85-36.45 27.82-36.38 28.8-36.3 29.75-36.25 30.7-36.2 31.67-36.18 32.65-36.15 33.8-36.15L33.8-36.15Q32.95-32.6 32.12-29.05 31.3-25.5 30.6-21.9L30.6-21.9 35.55-22.45Q36.25-26 36.8-29.33 37.35-32.65 38.25-36.2L38.25-36.2Q39.4-36.4 40.8-36.52 42.2-36.65 43.4-36.75 44.6-36.85 45.42-36.93 46.25-37 46.25-37L46.25-37Q45.55-34.75 44.92-32.08 44.3-29.4 43.7-26.53 43.1-23.65 42.55-20.7 42-17.75 41.55-15.1L41.55-15.1Q40.45-8.75 39.5-2.1L39.5-2.1 31.7-1.2Q32.35-4.2 32.85-7.05L32.85-7.05Q33.35-9.45 33.87-12.05 34.4-14.65 34.7-16.5L34.7-16.5 29.85-16.05Q29.5-14.15 29.02-11.65 28.55-9.15 28.15-6.9L28.15-6.9Q27.6-4.2 27.05-1.5L27.05-1.5ZM49.5-1Q49.05-1 47.72-0.88 46.4-0.75 45-0.58 43.6-0.4 42.47-0.25 41.35-0.1 41.25-0.05L41.25-0.05Q41.75-2.2 42.27-4.83 42.8-7.45 43.35-10.33 43.9-13.2 44.4-16.15 44.9-19.1 45.35-21.85L45.35-21.85Q46.4-28.25 47.45-35L47.45-35 55.25-36.25Q54.1-29.55 53-23.1L53-23.1Q52.55-20.35 52.07-17.4 51.6-14.45 51.12-11.55 50.65-8.65 50.25-5.93 49.85-3.2 49.5-1L49.5-1ZM57.84-0.85L49.59-0.3Q51.79-6.95 53.79-13.35L53.79-13.35Q54.64-16.05 55.54-19 56.44-21.95 57.34-24.85 58.24-27.75 59.02-30.45 59.79-33.15 60.39-35.45L60.39-35.45Q63.14-35.45 65.59-35.75 68.04-36.05 70.89-36.3L70.89-36.3Q70.74-35.2 70.57-33.83 70.39-32.45 70.17-30.95 69.94-29.45 69.69-27.85 69.44-26.25 69.09-23.75 68.74-21.25 68.14-17.5L68.14-17.5 68.79-17.5Q70.24-21.3 71.19-23.83 72.14-26.35 72.74-27.95 73.34-29.55 73.97-31.08 74.59-32.6 75.17-33.98 75.74-35.35 76.24-36.4L76.24-36.4Q77.49-36.5 78.59-36.65 79.69-36.8 80.79-36.98 81.89-37.15 83.02-37.33 84.14-37.5 85.49-37.75L85.49-37.75Q84.99-34.85 84.54-31.8 84.09-28.75 83.74-25.73 83.39-22.7 83.07-19.75 82.74-16.8 82.49-14.15L82.49-14.15Q81.89-7.95 81.44-2.05L81.44-2.05 72.74-0.5Q72.74-0.75 72.82-1.85 72.89-2.95 73.02-4.55 73.14-6.15 73.37-8.1 73.59-10.05 73.82-12 74.04-13.95 74.29-15.78 74.54-17.6 74.79-18.9L74.79-18.9 74.34-18.9Q73.64-16.8 72.79-14.48 71.94-12.15 71.07-9.75 70.19-7.35 69.34-5.05 68.49-2.75 67.84-0.65L67.84-0.65Q66.09-0.6 64.84-0.53 63.59-0.45 61.94-0.35L61.94-0.35 63.54-18.9 62.79-18.9Q62.69-18.25 62.29-16.73 61.89-15.2 61.37-13.23 60.84-11.25 60.24-9.13 59.64-7 59.12-5.18 58.59-3.35 58.24-2.18 57.89-1 57.84-0.85L57.84-0.85ZM98.54-0.85L90.29-0.3Q92.49-6.95 94.49-13.35L94.49-13.35Q95.34-16.05 96.24-19 97.14-21.95 98.04-24.85 98.94-27.75 99.71-30.45 100.49-33.15 101.09-35.45L101.09-35.45Q103.84-35.45 106.29-35.75 108.74-36.05 111.59-36.3L111.59-36.3Q111.44-35.2 111.26-33.83 111.09-32.45 110.86-30.95 110.64-29.45 110.39-27.85 110.14-26.25 109.79-23.75 109.44-21.25 108.84-17.5L108.84-17.5 109.49-17.5Q110.94-21.3 111.89-23.83 112.84-26.35 113.44-27.95 114.04-29.55 114.66-31.08 115.29-32.6 115.86-33.98 116.44-35.35 116.94-36.4L116.94-36.4Q118.19-36.5 119.29-36.65 120.39-36.8 121.49-36.98 122.59-37.15 123.71-37.33 124.84-37.5 126.19-37.75L126.19-37.75Q125.69-34.85 125.24-31.8 124.79-28.75 124.44-25.73 124.09-22.7 123.76-19.75 123.44-16.8 123.19-14.15L123.19-14.15Q122.59-7.95 122.14-2.05L122.14-2.05 113.44-0.5Q113.44-0.75 113.51-1.85 113.59-2.95 113.71-4.55 113.84-6.15 114.06-8.1 114.29-10.05 114.51-12 114.74-13.95 114.99-15.78 115.24-17.6 115.49-18.9L115.49-18.9 115.04-18.9Q114.34-16.8 113.49-14.48 112.64-12.15 111.76-9.75 110.89-7.35 110.04-5.05 109.19-2.75 108.54-0.65L108.54-0.65Q106.79-0.6 105.54-0.53 104.29-0.45 102.64-0.35L102.64-0.35 104.24-18.9 103.49-18.9Q103.39-18.25 102.99-16.73 102.59-15.2 102.06-13.23 101.54-11.25 100.94-9.13 100.34-7 99.81-5.18 99.29-3.35 98.94-2.18 98.59-1 98.54-0.85L98.54-0.85ZM131.24-1Q130.79-1 129.46-0.88 128.14-0.75 126.74-0.58 125.34-0.4 124.21-0.25 123.09-0.1 122.99-0.05L122.99-0.05Q123.49-2.2 124.01-4.83 124.54-7.45 125.09-10.33 125.64-13.2 126.14-16.15 126.64-19.1 127.09-21.85L127.09-21.85Q128.14-28.25 129.19-35L129.19-35 136.99-36.25Q135.84-29.55 134.74-23.1L134.74-23.1Q134.29-20.35 133.81-17.4 133.34-14.45 132.86-11.55 132.39-8.65 131.99-5.93 131.59-3.2 131.24-1L131.24-1ZM149.38-2.45L133.23 0.05 139.78-35.5 155.58-36.85Q155.23-35.75 154.98-34.6L154.98-34.6Q154.73-33.65 154.51-32.63 154.28-31.6 154.13-30.8L154.13-30.8Q153.63-30.75 152.71-30.73 151.78-30.7 150.73-30.68 149.68-30.65 148.61-30.65 147.53-30.65 146.73-30.65L146.73-30.65 144.98-21.7Q146.53-21.8 147.88-21.85L147.88-21.85Q148.98-21.9 150.13-21.9 151.28-21.9 151.83-21.95L151.83-21.95Q151.63-20.55 151.46-19.2 151.28-17.85 151.03-16.45L151.03-16.45Q150.53-16.4 149.41-16.38 148.28-16.35 147.13-16.3L147.13-16.3Q145.83-16.25 144.28-16.2L144.28-16.2 142.58-7 149.88-8.15 149.38-2.45ZM157.43-1.45L150.13 0.25Q151.63-6.95 152.98-13.7L152.98-13.7Q153.48-16.6 154.06-19.7 154.63-22.8 155.13-25.83 155.63-28.85 156.03-31.63 156.43-34.4 156.63-36.65L156.63-36.65Q157.28-36.6 157.73-36.6 158.18-36.6 158.78-36.6L158.78-36.6Q159.48-36.6 160.48-36.63 161.48-36.65 162.48-36.7 163.48-36.75 164.63-36.8L164.63-36.8Q165.33-33.3 165.88-30.05L165.88-30.05Q166.43-27.2 167.01-24.2 167.58-21.2 168.03-19.1L168.03-19.1Q168.23-20.1 168.48-21.43 168.73-22.75 169.03-24.2 169.33-25.65 169.61-27.13 169.88-28.6 170.18-30.05L170.18-30.05Q170.88-33.3 171.63-36.75L171.63-36.75 177.73-37.5Q176.03-29.85 174.73-23L174.73-23Q174.13-20.05 173.56-17.03 172.98-14 172.48-11.23 171.98-8.45 171.63-6.08 171.28-3.7 171.08-2.1L171.08-2.1Q170.93-2.1 169.91-1.88 168.88-1.65 167.56-1.35 166.23-1.05 164.91-0.75 163.58-0.45 162.93-0.2L162.93-0.2Q162.63-4.2 162.28-7.8L162.28-7.8Q162.13-9.35 161.96-10.98 161.78-12.6 161.58-14.1 161.38-15.6 161.18-16.9 160.98-18.2 160.78-19.15L160.78-19.15Q160.63-18.2 160.38-16.95 160.13-15.7 159.88-14.3 159.63-12.9 159.38-11.38 159.13-9.85 158.83-8.45L158.83-8.45Q158.18-5.1 157.43-1.45L157.43-1.45ZM190.73-1.65L182.08 0.05Q183.58-6.7 184.93-13.15L184.93-13.15Q185.48-15.85 186.08-18.85 186.68-21.85 187.23-24.75 187.78-27.65 188.28-30.35 188.78-33.05 189.13-35.3L189.13-35.3Q190.58-35.75 191.98-36.08 193.38-36.4 194.85-36.65 196.33-36.9 197.63-36.9L197.63-36.9Q199.88-36.9 201.4-36.15 202.93-35.4 203.88-34.13 204.83-32.85 205.23-31.15 205.63-29.45 205.63-27.5L205.63-27.5Q205.63-24.7 204.6-22.1 203.58-19.5 201.85-17.48 200.13-15.45 197.9-14.25 195.68-13.05 193.28-13.05L193.28-13.05 192.73-13.05Q192.33-11.35 191.98-9.35 191.63-7.35 191.38-5.65L191.38-5.65Q191.03-3.65 190.73-1.65L190.73-1.65ZM196.03-30.85Q195.48-27.55 194.93-24.6 194.38-21.65 193.73-18.3L193.73-18.3Q194.53-18.5 195.4-19.23 196.28-19.95 197.03-21.13 197.78-22.3 198.23-23.85 198.68-25.4 198.68-27.1L198.68-27.1Q198.68-28.95 197.85-29.9 197.03-30.85 196.03-30.85L196.03-30.85ZM209.27-1.5L201.57 0.1Q202.97-6.9 204.27-13.55L204.27-13.55Q204.77-16.4 205.32-19.48 205.87-22.55 206.35-25.55 206.82-28.55 207.25-31.38 207.67-34.2 207.92-36.5L207.92-36.5Q209.07-36.45 210.05-36.38 211.02-36.3 211.97-36.25 212.92-36.2 213.9-36.18 214.87-36.15 216.02-36.15L216.02-36.15Q215.17-32.6 214.35-29.05 213.52-25.5 212.82-21.9L212.82-21.9 217.77-22.45Q218.47-26 219.02-29.33 219.57-32.65 220.47-36.2L220.47-36.2Q221.62-36.4 223.02-36.52 224.42-36.65 225.62-36.75 226.82-36.85 227.65-36.93 228.47-37 228.47-37L228.47-37Q227.77-34.75 227.15-32.08 226.52-29.4 225.92-26.53 225.32-23.65 224.77-20.7 224.22-17.75 223.77-15.1L223.77-15.1Q222.67-8.75 221.72-2.1L221.72-2.1 213.92-1.2Q214.57-4.2 215.07-7.05L215.07-7.05Q215.57-9.45 216.1-12.05 216.62-14.65 216.92-16.5L216.92-16.5 212.07-16.05Q211.72-14.15 211.25-11.65 210.77-9.15 210.37-6.9L210.37-6.9Q209.82-4.2 209.27-1.5L209.27-1.5ZM231.72-1Q231.27-1 229.95-0.88 228.62-0.75 227.22-0.58 225.82-0.4 224.7-0.25 223.57-0.1 223.47-0.05L223.47-0.05Q223.97-2.2 224.5-4.83 225.02-7.45 225.57-10.33 226.12-13.2 226.62-16.15 227.12-19.1 227.57-21.85L227.57-21.85Q228.62-28.25 229.67-35L229.67-35 237.47-36.25Q236.32-29.55 235.22-23.1L235.22-23.1Q234.77-20.35 234.3-17.4 233.82-14.45 233.35-11.55 232.87-8.65 232.47-5.93 232.07-3.2 231.72-1L231.72-1Z" opacity="1" transform="matrix(1,0,0,1,0,0)" fill="white" class="wordmark-text-0" id="SvgjsPath1949"></path></svg></g></svg></g></svg></g></svg></g><g transform="matrix(1,0,0,1,151.09642009280654,0)"><svg viewBox="0 0 93.3271598143869 87.40218102251211" height="87.40218102251211" width="93.3271598143869"><g><svg xmlns="http://www.w3.org/2000/svg" viewBox="4.5 3.003310501211936 23 25.996689498788065" x="8" y="0" height="87.40218102251211" width="77.3271598143869" class="icon-icon-0" data-fill-palette-color="accent" id="SvgjsSvg1948"><g data-name="Layer 39" fill="black"><path d="M27 8A0.5 0.5 0 0 0 27.5 7.5V5.5A0.5 0.5 0 0 0 27 5H18.35A1.52 1.52 0 0 0 17 4.15 1.6 1.6 0 0 0 16.47 4.25 1.49 1.49 0 0 0 13.53 4.25 1.6 1.6 0 0 0 13 4.15 1.52 1.52 0 0 0 11.65 5H8A1.5 1.5 0 0 0 8 8H11.5V9H8A1.5 1.5 0 0 0 8 12H11.5V18H6A1.5 1.5 0 0 0 4.5 19.5V20.5C4.5 23.69 6.25 25.78 9.5 26.61V28.5A0.5 0.5 0 0 0 10 29H19A0.5 0.5 0 0 0 19.5 28.5V26.61C22.75 25.78 24.5 23.69 24.5 20.5V19.5A1.5 1.5 0 0 0 23 18 4.08 4.08 0 0 0 18.94 14.19 3 3 0 0 0 18.53 14.19V12H27A0.5 0.5 0 0 0 27.5 11.5V9.5A0.5 0.5 0 0 0 27 9H18.5V8ZM26.5 7H18.5V6H26.5ZM14.5 4.5A0.5 0.5 0 0 1 15.5 4.5V9H14.5zM8 7A0.5 0.5 0 0 1 8 6H11.5V7ZM12.5 7.5V5.65A0.5 0.5 0 1 1 13.5 5.65V9H12.5ZM12.5 12H13.5V18H12.5ZM15.5 12V16A3 3 0 0 0 15.32 16.31L15.25 16.43A4 4 0 0 0 15 17 1 1 0 0 1 15 17.14 3 3 0 0 0 14.9 17.58V17.79A2 2 0 0 0 14.9 18.02H14.5V12ZM18.5 27V28H10.5V27zM23.5 19.5V20.5C23.5 25.05 19.42 26 16 26H13C9.58 26 5.5 25.05 5.5 20.5V19.5A0.5 0.5 0 0 1 6 19H23A0.5 0.5 0 0 1 23.5 19.5M17.77 18A1.16 1.16 0 0 1 18.27 17.29 1.14 1.14 0 0 1 18.91 17.1 1.16 1.16 0 0 1 20 18ZM22 18H21.08A2.18 2.18 0 0 0 18.92 16.1 2.15 2.15 0 0 0 17.74 16.45 2.17 2.17 0 0 0 16.74 18H15.82A0.13 0.13 0 0 1 15.82 17.94 2.4 2.4 0 0 1 15.98 17.23V17.13A3.3 3.3 0 0 1 16.34 16.46 3.15 3.15 0 0 1 18.07 15.29 3.3 3.3 0 0 1 18.85 15.19 3.1 3.1 0 0 1 22 18M17.5 14.44L17.33 14.52 17.12 14.61C16.99 14.68 16.85 14.75 16.73 14.83L16.56 14.94H16.5V12H17.5ZM26.5 11H8A0.5 0.5 0 0 1 8 10H26.5ZM16.5 9V5.65A0.5 0.5 0 1 1 17.5 5.65V9Z" fill="black"></path></g></svg></g></svg></g><g><rect width="151.09642009280654" height="5.703342173416033" y="80.69883884909608" x="244.42357990719344" fill="black"></rect><rect width="151.09642009280654" height="5.703342173416033" y="80.69883884909608" x="0" fill="black"></rect><rect width="151.09642009280654" height="5.703342173416033" y="69.29215450226401" x="244.42357990719344" fill="black"></rect><rect width="151.09642009280654" height="5.703342173416033" y="69.29215450226401" x="0" fill="black"></rect></g></svg></g><defs><mask></mask></defs></svg><rect width="395.52" height="165.57565302655166" fill="black" stroke="none" visibility="hidden"></rect></g></mask><linearGradient x1="0" x2="1" y1="0.5" y2="0.5" id="5587a6b8-be46-45ad-af2a-82289f29ac97"><stop stop-color="#ffa62e" offset="0"></stop><stop stop-color="#f71b3d" offset="1"></stop></linearGradient><rect width="395.52" height="165.57565302655166" fill="#ffffff" mask="url(#e60ba3ce-1637-4ded-8103-0d3c85148f4c)" data-fill-palette-color="primary"></rect><mask id="4535dfa4-6f52-43cd-8607-829a2e2e06dd"><g id="SvgjsG1971"><svg viewBox="0 0 395.52 165.57565302655166" height="165.57565302655166" width="395.52"><g><svg viewBox="0 0 395.52 165.57565302655166" height="165.57565302655166" width="395.52"><g transform="matrix(1,0,0,1,0,102.33239613616665)"><svg viewBox="0 0 395.52 63.24325689038502" height="63.24325689038502" width="395.52"><g id="SvgjsG1970"><svg viewBox="0 0 395.52 63.24325689038502" height="63.24325689038502" width="395.52" id="SvgjsSvg1969"><g><svg viewBox="0 0 395.52 63.24325689038502" height="63.24325689038502" width="395.52"><g transform="matrix(1,0,0,1,0,0)"><svg width="395.52" viewBox="-0.15 -37.75 237.62 38" height="63.24325689038502" data-palette-color="url(#5587a6b8-be46-45ad-af2a-82289f29ac97)"></svg></g></svg></g></svg></g></svg></g><g transform="matrix(1,0,0,1,151.09642009280654,0)"><svg viewBox="0 0 93.3271598143869 87.40218102251211" height="87.40218102251211" width="93.3271598143869"><g><svg xmlns="http://www.w3.org/2000/svg" viewBox="4.5 3.003310501211936 23 25.996689498788065" x="8" y="0" height="87.40218102251211" width="77.3271598143869" class="icon-icon-0" data-fill-palette-color="accent" id="SvgjsSvg1968"><g data-name="Layer 39" fill="white"><path d="M27 8A0.5 0.5 0 0 0 27.5 7.5V5.5A0.5 0.5 0 0 0 27 5H18.35A1.52 1.52 0 0 0 17 4.15 1.6 1.6 0 0 0 16.47 4.25 1.49 1.49 0 0 0 13.53 4.25 1.6 1.6 0 0 0 13 4.15 1.52 1.52 0 0 0 11.65 5H8A1.5 1.5 0 0 0 8 8H11.5V9H8A1.5 1.5 0 0 0 8 12H11.5V18H6A1.5 1.5 0 0 0 4.5 19.5V20.5C4.5 23.69 6.25 25.78 9.5 26.61V28.5A0.5 0.5 0 0 0 10 29H19A0.5 0.5 0 0 0 19.5 28.5V26.61C22.75 25.78 24.5 23.69 24.5 20.5V19.5A1.5 1.5 0 0 0 23 18 4.08 4.08 0 0 0 18.94 14.19 3 3 0 0 0 18.53 14.19V12H27A0.5 0.5 0 0 0 27.5 11.5V9.5A0.5 0.5 0 0 0 27 9H18.5V8ZM26.5 7H18.5V6H26.5ZM14.5 4.5A0.5 0.5 0 0 1 15.5 4.5V9H14.5zM8 7A0.5 0.5 0 0 1 8 6H11.5V7ZM12.5 7.5V5.65A0.5 0.5 0 1 1 13.5 5.65V9H12.5ZM12.5 12H13.5V18H12.5ZM15.5 12V16A3 3 0 0 0 15.32 16.31L15.25 16.43A4 4 0 0 0 15 17 1 1 0 0 1 15 17.14 3 3 0 0 0 14.9 17.58V17.79A2 2 0 0 0 14.9 18.02H14.5V12ZM18.5 27V28H10.5V27zM23.5 19.5V20.5C23.5 25.05 19.42 26 16 26H13C9.58 26 5.5 25.05 5.5 20.5V19.5A0.5 0.5 0 0 1 6 19H23A0.5 0.5 0 0 1 23.5 19.5M17.77 18A1.16 1.16 0 0 1 18.27 17.29 1.14 1.14 0 0 1 18.91 17.1 1.16 1.16 0 0 1 20 18ZM22 18H21.08A2.18 2.18 0 0 0 18.92 16.1 2.15 2.15 0 0 0 17.74 16.45 2.17 2.17 0 0 0 16.74 18H15.82A0.13 0.13 0 0 1 15.82 17.94 2.4 2.4 0 0 1 15.98 17.23V17.13A3.3 3.3 0 0 1 16.34 16.46 3.15 3.15 0 0 1 18.07 15.29 3.3 3.3 0 0 1 18.85 15.19 3.1 3.1 0 0 1 22 18M17.5 14.44L17.33 14.52 17.12 14.61C16.99 14.68 16.85 14.75 16.73 14.83L16.56 14.94H16.5V12H17.5ZM26.5 11H8A0.5 0.5 0 0 1 8 10H26.5ZM16.5 9V5.65A0.5 0.5 0 1 1 17.5 5.65V9Z" fill="white"></path></g></svg></g></svg></g><g><rect width="151.09642009280654" height="5.703342173416033" y="80.69883884909608" x="244.42357990719344" fill="white"></rect><rect width="151.09642009280654" height="5.703342173416033" y="80.69883884909608" x="0" fill="white"></rect><rect width="151.09642009280654" height="5.703342173416033" y="69.29215450226401" x="244.42357990719344" fill="white"></rect><rect width="151.09642009280654" height="5.703342173416033" y="69.29215450226401" x="0" fill="white"></rect></g></svg></g><defs><mask></mask></defs><mask><g id="SvgjsG1967"><svg viewBox="0 0 395.52 165.57565302655166" height="165.57565302655166" width="395.52"><g><svg viewBox="0 0 395.52 165.57565302655166" height="165.57565302655166" width="395.52"><g transform="matrix(1,0,0,1,0,102.33239613616665)"><svg viewBox="0 0 395.52 63.24325689038502" height="63.24325689038502" width="395.52"><g id="SvgjsG1966"><svg viewBox="0 0 395.52 63.24325689038502" height="63.24325689038502" width="395.52" id="SvgjsSvg1965"><g><svg viewBox="0 0 395.52 63.24325689038502" height="63.24325689038502" width="395.52"><g transform="matrix(1,0,0,1,0,0)"><svg width="395.52" viewBox="-0.15 -37.75 237.62 38" height="63.24325689038502" data-palette-color="url(#5587a6b8-be46-45ad-af2a-82289f29ac97)"><path d="M8.5-1.65L-0.15 0.05Q1.35-6.7 2.7-13.15L2.7-13.15Q3.25-15.85 3.85-18.85 4.45-21.85 5-24.75 5.55-27.65 6.05-30.35 6.55-33.05 6.9-35.3L6.9-35.3Q8.35-35.75 9.75-36.08 11.15-36.4 12.63-36.65 14.1-36.9 15.4-36.9L15.4-36.9Q17.65-36.9 19.18-36.15 20.7-35.4 21.65-34.13 22.6-32.85 23-31.15 23.4-29.45 23.4-27.5L23.4-27.5Q23.4-24.7 22.38-22.1 21.35-19.5 19.63-17.48 17.9-15.45 15.68-14.25 13.45-13.05 11.05-13.05L11.05-13.05 10.5-13.05Q10.1-11.35 9.75-9.35 9.4-7.35 9.15-5.65L9.15-5.65Q8.8-3.65 8.5-1.65L8.5-1.65ZM13.8-30.85Q13.25-27.55 12.7-24.6 12.15-21.65 11.5-18.3L11.5-18.3Q12.3-18.5 13.18-19.23 14.05-19.95 14.8-21.13 15.55-22.3 16-23.85 16.45-25.4 16.45-27.1L16.45-27.1Q16.45-28.95 15.63-29.9 14.8-30.85 13.8-30.85L13.8-30.85ZM27.05-1.5L19.35 0.1Q20.75-6.9 22.05-13.55L22.05-13.55Q22.55-16.4 23.1-19.48 23.65-22.55 24.12-25.55 24.6-28.55 25.02-31.38 25.45-34.2 25.7-36.5L25.7-36.5Q26.85-36.45 27.82-36.38 28.8-36.3 29.75-36.25 30.7-36.2 31.67-36.18 32.65-36.15 33.8-36.15L33.8-36.15Q32.95-32.6 32.12-29.05 31.3-25.5 30.6-21.9L30.6-21.9 35.55-22.45Q36.25-26 36.8-29.33 37.35-32.65 38.25-36.2L38.25-36.2Q39.4-36.4 40.8-36.52 42.2-36.65 43.4-36.75 44.6-36.85 45.42-36.93 46.25-37 46.25-37L46.25-37Q45.55-34.75 44.92-32.08 44.3-29.4 43.7-26.53 43.1-23.65 42.55-20.7 42-17.75 41.55-15.1L41.55-15.1Q40.45-8.75 39.5-2.1L39.5-2.1 31.7-1.2Q32.35-4.2 32.85-7.05L32.85-7.05Q33.35-9.45 33.87-12.05 34.4-14.65 34.7-16.5L34.7-16.5 29.85-16.05Q29.5-14.15 29.02-11.65 28.55-9.15 28.15-6.9L28.15-6.9Q27.6-4.2 27.05-1.5L27.05-1.5ZM49.5-1Q49.05-1 47.72-0.88 46.4-0.75 45-0.58 43.6-0.4 42.47-0.25 41.35-0.1 41.25-0.05L41.25-0.05Q41.75-2.2 42.27-4.83 42.8-7.45 43.35-10.33 43.9-13.2 44.4-16.15 44.9-19.1 45.35-21.85L45.35-21.85Q46.4-28.25 47.45-35L47.45-35 55.25-36.25Q54.1-29.55 53-23.1L53-23.1Q52.55-20.35 52.07-17.4 51.6-14.45 51.12-11.55 50.65-8.65 50.25-5.93 49.85-3.2 49.5-1L49.5-1ZM57.84-0.85L49.59-0.3Q51.79-6.95 53.79-13.35L53.79-13.35Q54.64-16.05 55.54-19 56.44-21.95 57.34-24.85 58.24-27.75 59.02-30.45 59.79-33.15 60.39-35.45L60.39-35.45Q63.14-35.45 65.59-35.75 68.04-36.05 70.89-36.3L70.89-36.3Q70.74-35.2 70.57-33.83 70.39-32.45 70.17-30.95 69.94-29.45 69.69-27.85 69.44-26.25 69.09-23.75 68.74-21.25 68.14-17.5L68.14-17.5 68.79-17.5Q70.24-21.3 71.19-23.83 72.14-26.35 72.74-27.95 73.34-29.55 73.97-31.08 74.59-32.6 75.17-33.98 75.74-35.35 76.24-36.4L76.24-36.4Q77.49-36.5 78.59-36.65 79.69-36.8 80.79-36.98 81.89-37.15 83.02-37.33 84.14-37.5 85.49-37.75L85.49-37.75Q84.99-34.85 84.54-31.8 84.09-28.75 83.74-25.73 83.39-22.7 83.07-19.75 82.74-16.8 82.49-14.15L82.49-14.15Q81.89-7.95 81.44-2.05L81.44-2.05 72.74-0.5Q72.74-0.75 72.82-1.85 72.89-2.95 73.02-4.55 73.14-6.15 73.37-8.1 73.59-10.05 73.82-12 74.04-13.95 74.29-15.78 74.54-17.6 74.79-18.9L74.79-18.9 74.34-18.9Q73.64-16.8 72.79-14.48 71.94-12.15 71.07-9.75 70.19-7.35 69.34-5.05 68.49-2.75 67.84-0.65L67.84-0.65Q66.09-0.6 64.84-0.53 63.59-0.45 61.94-0.35L61.94-0.35 63.54-18.9 62.79-18.9Q62.69-18.25 62.29-16.73 61.89-15.2 61.37-13.23 60.84-11.25 60.24-9.13 59.64-7 59.12-5.18 58.59-3.35 58.24-2.18 57.89-1 57.84-0.85L57.84-0.85ZM98.54-0.85L90.29-0.3Q92.49-6.95 94.49-13.35L94.49-13.35Q95.34-16.05 96.24-19 97.14-21.95 98.04-24.85 98.94-27.75 99.71-30.45 100.49-33.15 101.09-35.45L101.09-35.45Q103.84-35.45 106.29-35.75 108.74-36.05 111.59-36.3L111.59-36.3Q111.44-35.2 111.26-33.83 111.09-32.45 110.86-30.95 110.64-29.45 110.39-27.85 110.14-26.25 109.79-23.75 109.44-21.25 108.84-17.5L108.84-17.5 109.49-17.5Q110.94-21.3 111.89-23.83 112.84-26.35 113.44-27.95 114.04-29.55 114.66-31.08 115.29-32.6 115.86-33.98 116.44-35.35 116.94-36.4L116.94-36.4Q118.19-36.5 119.29-36.65 120.39-36.8 121.49-36.98 122.59-37.15 123.71-37.33 124.84-37.5 126.19-37.75L126.19-37.75Q125.69-34.85 125.24-31.8 124.79-28.75 124.44-25.73 124.09-22.7 123.76-19.75 123.44-16.8 123.19-14.15L123.19-14.15Q122.59-7.95 122.14-2.05L122.14-2.05 113.44-0.5Q113.44-0.75 113.51-1.85 113.59-2.95 113.71-4.55 113.84-6.15 114.06-8.1 114.29-10.05 114.51-12 114.74-13.95 114.99-15.78 115.24-17.6 115.49-18.9L115.49-18.9 115.04-18.9Q114.34-16.8 113.49-14.48 112.64-12.15 111.76-9.75 110.89-7.35 110.04-5.05 109.19-2.75 108.54-0.65L108.54-0.65Q106.79-0.6 105.54-0.53 104.29-0.45 102.64-0.35L102.64-0.35 104.24-18.9 103.49-18.9Q103.39-18.25 102.99-16.73 102.59-15.2 102.06-13.23 101.54-11.25 100.94-9.13 100.34-7 99.81-5.18 99.29-3.35 98.94-2.18 98.59-1 98.54-0.85L98.54-0.85ZM131.24-1Q130.79-1 129.46-0.88 128.14-0.75 126.74-0.58 125.34-0.4 124.21-0.25 123.09-0.1 122.99-0.05L122.99-0.05Q123.49-2.2 124.01-4.83 124.54-7.45 125.09-10.33 125.64-13.2 126.14-16.15 126.64-19.1 127.09-21.85L127.09-21.85Q128.14-28.25 129.19-35L129.19-35 136.99-36.25Q135.84-29.55 134.74-23.1L134.74-23.1Q134.29-20.35 133.81-17.4 133.34-14.45 132.86-11.55 132.39-8.65 131.99-5.93 131.59-3.2 131.24-1L131.24-1ZM149.38-2.45L133.23 0.05 139.78-35.5 155.58-36.85Q155.23-35.75 154.98-34.6L154.98-34.6Q154.73-33.65 154.51-32.63 154.28-31.6 154.13-30.8L154.13-30.8Q153.63-30.75 152.71-30.73 151.78-30.7 150.73-30.68 149.68-30.65 148.61-30.65 147.53-30.65 146.73-30.65L146.73-30.65 144.98-21.7Q146.53-21.8 147.88-21.85L147.88-21.85Q148.98-21.9 150.13-21.9 151.28-21.9 151.83-21.95L151.83-21.95Q151.63-20.55 151.46-19.2 151.28-17.85 151.03-16.45L151.03-16.45Q150.53-16.4 149.41-16.38 148.28-16.35 147.13-16.3L147.13-16.3Q145.83-16.25 144.28-16.2L144.28-16.2 142.58-7 149.88-8.15 149.38-2.45ZM157.43-1.45L150.13 0.25Q151.63-6.95 152.98-13.7L152.98-13.7Q153.48-16.6 154.06-19.7 154.63-22.8 155.13-25.83 155.63-28.85 156.03-31.63 156.43-34.4 156.63-36.65L156.63-36.65Q157.28-36.6 157.73-36.6 158.18-36.6 158.78-36.6L158.78-36.6Q159.48-36.6 160.48-36.63 161.48-36.65 162.48-36.7 163.48-36.75 164.63-36.8L164.63-36.8Q165.33-33.3 165.88-30.05L165.88-30.05Q166.43-27.2 167.01-24.2 167.58-21.2 168.03-19.1L168.03-19.1Q168.23-20.1 168.48-21.43 168.73-22.75 169.03-24.2 169.33-25.65 169.61-27.13 169.88-28.6 170.18-30.05L170.18-30.05Q170.88-33.3 171.63-36.75L171.63-36.75 177.73-37.5Q176.03-29.85 174.73-23L174.73-23Q174.13-20.05 173.56-17.03 172.98-14 172.48-11.23 171.98-8.45 171.63-6.08 171.28-3.7 171.08-2.1L171.08-2.1Q170.93-2.1 169.91-1.88 168.88-1.65 167.56-1.35 166.23-1.05 164.91-0.75 163.58-0.45 162.93-0.2L162.93-0.2Q162.63-4.2 162.28-7.8L162.28-7.8Q162.13-9.35 161.96-10.98 161.78-12.6 161.58-14.1 161.38-15.6 161.18-16.9 160.98-18.2 160.78-19.15L160.78-19.15Q160.63-18.2 160.38-16.95 160.13-15.7 159.88-14.3 159.63-12.9 159.38-11.38 159.13-9.85 158.83-8.45L158.83-8.45Q158.18-5.1 157.43-1.45L157.43-1.45ZM190.73-1.65L182.08 0.05Q183.58-6.7 184.93-13.15L184.93-13.15Q185.48-15.85 186.08-18.85 186.68-21.85 187.23-24.75 187.78-27.65 188.28-30.35 188.78-33.05 189.13-35.3L189.13-35.3Q190.58-35.75 191.98-36.08 193.38-36.4 194.85-36.65 196.33-36.9 197.63-36.9L197.63-36.9Q199.88-36.9 201.4-36.15 202.93-35.4 203.88-34.13 204.83-32.85 205.23-31.15 205.63-29.45 205.63-27.5L205.63-27.5Q205.63-24.7 204.6-22.1 203.58-19.5 201.85-17.48 200.13-15.45 197.9-14.25 195.68-13.05 193.28-13.05L193.28-13.05 192.73-13.05Q192.33-11.35 191.98-9.35 191.63-7.35 191.38-5.65L191.38-5.65Q191.03-3.65 190.73-1.65L190.73-1.65ZM196.03-30.85Q195.48-27.55 194.93-24.6 194.38-21.65 193.73-18.3L193.73-18.3Q194.53-18.5 195.4-19.23 196.28-19.95 197.03-21.13 197.78-22.3 198.23-23.85 198.68-25.4 198.68-27.1L198.68-27.1Q198.68-28.95 197.85-29.9 197.03-30.85 196.03-30.85L196.03-30.85ZM209.27-1.5L201.57 0.1Q202.97-6.9 204.27-13.55L204.27-13.55Q204.77-16.4 205.32-19.48 205.87-22.55 206.35-25.55 206.82-28.55 207.25-31.38 207.67-34.2 207.92-36.5L207.92-36.5Q209.07-36.45 210.05-36.38 211.02-36.3 211.97-36.25 212.92-36.2 213.9-36.18 214.87-36.15 216.02-36.15L216.02-36.15Q215.17-32.6 214.35-29.05 213.52-25.5 212.82-21.9L212.82-21.9 217.77-22.45Q218.47-26 219.02-29.33 219.57-32.65 220.47-36.2L220.47-36.2Q221.62-36.4 223.02-36.52 224.42-36.65 225.62-36.75 226.82-36.85 227.65-36.93 228.47-37 228.47-37L228.47-37Q227.77-34.75 227.15-32.08 226.52-29.4 225.92-26.53 225.32-23.65 224.77-20.7 224.22-17.75 223.77-15.1L223.77-15.1Q222.67-8.75 221.72-2.1L221.72-2.1 213.92-1.2Q214.57-4.2 215.07-7.05L215.07-7.05Q215.57-9.45 216.1-12.05 216.62-14.65 216.92-16.5L216.92-16.5 212.07-16.05Q211.72-14.15 211.25-11.65 210.77-9.15 210.37-6.9L210.37-6.9Q209.82-4.2 209.27-1.5L209.27-1.5ZM231.72-1Q231.27-1 229.95-0.88 228.62-0.75 227.22-0.58 225.82-0.4 224.7-0.25 223.57-0.1 223.47-0.05L223.47-0.05Q223.97-2.2 224.5-4.83 225.02-7.45 225.57-10.33 226.12-13.2 226.62-16.15 227.12-19.1 227.57-21.85L227.57-21.85Q228.62-28.25 229.67-35L229.67-35 237.47-36.25Q236.32-29.55 235.22-23.1L235.22-23.1Q234.77-20.35 234.3-17.4 233.82-14.45 233.35-11.55 232.87-8.65 232.47-5.93 232.07-3.2 231.72-1L231.72-1Z" opacity="1" transform="matrix(1,0,0,1,0,0)" fill="black" class="wordmark-text-0" id="SvgjsPath1964"></path></svg></g></svg></g></svg></g></svg></g><g transform="matrix(1,0,0,1,151.09642009280654,0)"><svg viewBox="0 0 93.3271598143869 87.40218102251211" height="87.40218102251211" width="93.3271598143869"><g><svg xmlns="http://www.w3.org/2000/svg" viewBox="4.5 3.003310501211936 23 25.996689498788065" x="8" y="0" height="87.40218102251211" width="77.3271598143869" class="icon-icon-0" data-fill-palette-color="accent" id="SvgjsSvg1963"><g data-name="Layer 39" fill="black"><path d="M27 8A0.5 0.5 0 0 0 27.5 7.5V5.5A0.5 0.5 0 0 0 27 5H18.35A1.52 1.52 0 0 0 17 4.15 1.6 1.6 0 0 0 16.47 4.25 1.49 1.49 0 0 0 13.53 4.25 1.6 1.6 0 0 0 13 4.15 1.52 1.52 0 0 0 11.65 5H8A1.5 1.5 0 0 0 8 8H11.5V9H8A1.5 1.5 0 0 0 8 12H11.5V18H6A1.5 1.5 0 0 0 4.5 19.5V20.5C4.5 23.69 6.25 25.78 9.5 26.61V28.5A0.5 0.5 0 0 0 10 29H19A0.5 0.5 0 0 0 19.5 28.5V26.61C22.75 25.78 24.5 23.69 24.5 20.5V19.5A1.5 1.5 0 0 0 23 18 4.08 4.08 0 0 0 18.94 14.19 3 3 0 0 0 18.53 14.19V12H27A0.5 0.5 0 0 0 27.5 11.5V9.5A0.5 0.5 0 0 0 27 9H18.5V8ZM26.5 7H18.5V6H26.5ZM14.5 4.5A0.5 0.5 0 0 1 15.5 4.5V9H14.5zM8 7A0.5 0.5 0 0 1 8 6H11.5V7ZM12.5 7.5V5.65A0.5 0.5 0 1 1 13.5 5.65V9H12.5ZM12.5 12H13.5V18H12.5ZM15.5 12V16A3 3 0 0 0 15.32 16.31L15.25 16.43A4 4 0 0 0 15 17 1 1 0 0 1 15 17.14 3 3 0 0 0 14.9 17.58V17.79A2 2 0 0 0 14.9 18.02H14.5V12ZM18.5 27V28H10.5V27zM23.5 19.5V20.5C23.5 25.05 19.42 26 16 26H13C9.58 26 5.5 25.05 5.5 20.5V19.5A0.5 0.5 0 0 1 6 19H23A0.5 0.5 0 0 1 23.5 19.5M17.77 18A1.16 1.16 0 0 1 18.27 17.29 1.14 1.14 0 0 1 18.91 17.1 1.16 1.16 0 0 1 20 18ZM22 18H21.08A2.18 2.18 0 0 0 18.92 16.1 2.15 2.15 0 0 0 17.74 16.45 2.17 2.17 0 0 0 16.74 18H15.82A0.13 0.13 0 0 1 15.82 17.94 2.4 2.4 0 0 1 15.98 17.23V17.13A3.3 3.3 0 0 1 16.34 16.46 3.15 3.15 0 0 1 18.07 15.29 3.3 3.3 0 0 1 18.85 15.19 3.1 3.1 0 0 1 22 18M17.5 14.44L17.33 14.52 17.12 14.61C16.99 14.68 16.85 14.75 16.73 14.83L16.56 14.94H16.5V12H17.5ZM26.5 11H8A0.5 0.5 0 0 1 8 10H26.5ZM16.5 9V5.65A0.5 0.5 0 1 1 17.5 5.65V9Z" fill="black"></path></g></svg></g></svg></g><g><rect width="151.09642009280654" height="5.703342173416033" y="80.69883884909608" x="244.42357990719344" fill="black"></rect><rect width="151.09642009280654" height="5.703342173416033" y="80.69883884909608" x="0" fill="black"></rect><rect width="151.09642009280654" height="5.703342173416033" y="69.29215450226401" x="244.42357990719344" fill="black"></rect><rect width="151.09642009280654" height="5.703342173416033" y="69.29215450226401" x="0" fill="black"></rect></g></svg></g><defs><mask></mask></defs></svg><rect width="395.52" height="165.57565302655166" fill="black" stroke="none" visibility="hidden"></rect></g></mask></svg><rect width="395.52" height="165.57565302655166" fill="black" stroke="none" visibility="hidden"></rect></g></mask><linearGradient x1="0" x2="1" y1="0.5" y2="0.5" id="d51668f5-c9b1-4774-aee5-17e1a46f00c1"><stop stop-color="#ffa62e" offset="0"></stop><stop stop-color="#f71b3d" offset="1"></stop></linearGradient><rect width="395.52" height="165.57565302655166" fill="#ffffff" mask="url(#4535dfa4-6f52-43cd-8607-829a2e2e06dd)" data-fill-palette-color="accent"></rect></svg><rect width="395.52" height="165.57565302655166" fill="none" stroke="none" visibility="hidden"></rect></g></svg></g></svg>